<svg width="150" height="75" viewBox="0 0 150 75" xmlns="http://www.w3.org/2000/svg">
<path d="M142.468 74.5201H7.51951C3.3749 74.5201 0 71.1452 0 67.0006V7.51951C0 3.3749 3.3749 0 7.51951 0H142.468C146.613 0 149.988 3.3749 149.988 7.51951V67.0065C149.988 71.1511 146.613 74.526 142.468 74.526V74.5201ZM7.51951 1.7585C4.34 1.7585 1.7585 4.34 1.7585 7.51951V67.0065C1.7585 70.1801 4.34 72.7675 7.51951 72.7675H142.468C145.642 72.7675 148.229 70.186 148.229 67.0065V7.51951C148.229 4.34592 145.648 1.7585 142.468 1.7585H7.51951Z" />
<path d="M8.89315 67.8947C8.43132 67.8947 8.03462 67.6934 7.82739 67.273L7.81555 67.8236H6.96887V62.9922H7.89252V65.0171C8.05831 64.6204 8.49053 64.3955 8.91091 64.3955C9.9293 64.3955 10.3082 65.2362 10.3082 66.1303C10.3082 67.0243 9.92338 67.9006 8.89315 67.9006V67.8947ZM8.59711 65.0408C8.01686 65.0408 7.86884 65.6566 7.86884 66.1243C7.86884 66.5921 8.01686 67.2434 8.59118 67.2434C9.16551 67.2434 9.31353 66.6039 9.31353 66.1243C9.31353 65.6448 9.20103 65.0408 8.59711 65.0408Z" />
<path d="M12.647 68.2025C12.493 68.6703 12.2266 69.3393 11.3977 69.3393C11.1372 69.3393 10.9714 69.3038 10.7345 69.2564L10.776 68.617C10.8944 68.6584 11.0187 68.6821 11.1431 68.6821C11.451 68.6821 11.6523 68.3209 11.7292 68.1019L11.7885 67.9124L10.5747 64.4487H11.5516L12.274 67.042L12.9667 64.4487H13.8785L12.647 68.1966V68.2025Z" />
<path d="M17.5495 67.8946C17.0876 67.8946 16.6199 67.8413 16.1758 67.6992L16.2113 66.9355C16.6021 67.1368 17.0284 67.2019 17.4666 67.2019C17.9047 67.2019 18.3251 67.0539 18.3251 66.5802C18.3251 66.2368 17.8514 66.0592 17.5258 65.9171L17.0699 65.7158C16.5429 65.4967 16.1462 65.171 16.1462 64.5612C16.1462 63.5902 17.1468 63.2823 17.9639 63.2823C18.3488 63.2823 18.7218 63.3237 19.0889 63.4244L19.0534 64.1645C18.7396 64.0283 18.3606 63.9691 18.0231 63.9691C17.656 63.9691 17.135 64.0757 17.135 64.5197C17.135 64.8276 17.5258 64.9934 17.8218 65.1118L18.3073 65.3013C18.8994 65.5381 19.3316 65.846 19.3316 66.5387C19.3316 67.5157 18.4317 67.9006 17.5554 67.9006L17.5495 67.8946Z" />
<path d="M21.5638 67.8946C20.4507 67.8946 19.7994 67.2019 19.7994 66.1243C19.7994 65.0467 20.5277 64.3895 21.5638 64.3895C22.6473 64.3895 23.3282 65.0112 23.3282 66.1243C23.3282 67.2374 22.6592 67.8946 21.5638 67.8946ZM21.5638 65.0171C20.9776 65.0171 20.7941 65.6151 20.7941 66.1243C20.7941 66.6809 20.9895 67.2611 21.5638 67.2611C22.1381 67.2611 22.3335 66.6868 22.3335 66.1243C22.3335 65.6092 22.1677 65.0171 21.5638 65.0171Z" />
<path d="M26.1999 67.8177L26.1821 67.2552C25.963 67.6756 25.5663 67.8946 25.0986 67.8946C24.2874 67.8946 23.9677 67.3973 23.9677 66.6276V64.4546H24.8913V66.4203C24.8913 66.823 24.9506 67.2256 25.4479 67.2256C25.9689 67.2256 26.117 66.7519 26.117 66.3078V64.4605H27.0406V67.0657C27.0406 67.3144 27.0465 67.5749 27.0761 67.8236H26.2058L26.1999 67.8177Z" />
<path d="M29.0892 67.8946C28.3255 67.8946 28.136 67.4032 28.136 66.6986V65.0645H27.5321V64.4546H28.136V63.7737L29.0596 63.4717V64.4546H29.8116V65.0645H29.0596V66.7164C29.0596 67.0006 29.1307 67.2256 29.4623 67.2256C29.5925 67.2256 29.7169 67.2019 29.8294 67.1545L29.853 67.7703C29.6103 67.8532 29.3379 67.9006 29.0833 67.9006L29.0892 67.8946Z" />
<path d="M32.5766 65.846C32.5766 65.4434 32.5115 65.0467 32.0142 65.0467C31.5168 65.0467 31.3451 65.5144 31.3451 65.9526V67.8177H30.4214V62.9862H31.3451V65.0112C31.5464 64.5967 31.9135 64.3895 32.3753 64.3895C33.1687 64.3895 33.5003 64.875 33.5003 65.6388V67.8236H32.5766V65.846Z" />
<path d="M37.3548 66.1717V67.8236H36.3838V63.3533H38.2666C39.1251 63.3533 39.7764 63.8507 39.7764 64.7447C39.7764 65.698 39.1074 66.1717 38.2429 66.1717H37.3548ZM37.8877 64.0105H37.3429V65.4967H37.6923C38.237 65.4967 38.7699 65.4256 38.7699 64.7447C38.7699 64.2178 38.3613 64.0046 37.8817 64.0046L37.8877 64.0105Z" />
<path d="M41.6829 67.8946C40.5698 67.8946 39.9185 67.2019 39.9185 66.1243C39.9185 65.0467 40.6468 64.3895 41.6829 64.3895C42.7665 64.3895 43.4473 65.0112 43.4473 66.1243C43.4473 67.2374 42.7783 67.8946 41.6829 67.8946ZM41.6829 65.0171C41.0968 65.0171 40.9132 65.6151 40.9132 66.1243C40.9132 66.6809 41.1086 67.2611 41.6829 67.2611C42.2573 67.2611 42.4526 66.6868 42.4526 66.1243C42.4526 65.6092 42.2869 65.0171 41.6829 65.0171Z" />
<path d="M44.0868 67.8177V62.9862H45.0105V67.8177H44.0868Z" />
<path d="M46.5795 66.373C46.5854 66.9532 47.0176 67.3203 47.5861 67.3203C47.9058 67.3203 48.3143 67.2493 48.5985 67.0953L48.64 67.717C48.2669 67.8532 47.7992 67.9006 47.4025 67.9006C46.2775 67.9006 45.6677 67.2433 45.6677 66.1302C45.6677 65.1296 46.3367 64.3954 47.3078 64.3954C48.3854 64.3954 48.8176 65.1533 48.8176 66.1717V66.3789H46.5854L46.5795 66.373ZM47.3078 64.946C46.7927 64.946 46.5795 65.4848 46.5795 65.8756H47.965C47.965 65.4552 47.817 64.946 47.3078 64.946Z" />
<path d="M71.009 21.3921C67.267 21.3921 64.4664 19.4145 64.4664 15.4831C64.4664 11.7707 67.492 9.57405 71.009 9.57405C71.986 9.57405 73.0695 9.74576 74.0168 9.97075L73.9162 12.3746C73.2116 12.1141 72.3886 11.9306 71.6307 11.9306C69.4874 11.9306 68.0071 13.322 68.0071 15.4831C68.0071 17.6442 69.363 19.0356 71.5597 19.0356C72.3827 19.0356 73.1879 18.8817 73.9458 18.5738L74.0464 20.9244C73.0991 21.25 72.0037 21.3862 71.009 21.3862V21.3921Z" />
<path d="M75.4023 21.2086V8.8221H78.5818V21.2026H75.4023V21.2086Z" />
<path d="M80.4469 11.1431V8.9642H83.6264V11.1431H80.4469ZM80.4469 21.2086V12.5345H83.6264V21.2086H80.4469Z" />
<path d="M96.3148 21.2086V16.0041C96.3148 15.2462 96.1609 14.5298 95.2491 14.5298C94.2899 14.5298 94.0649 15.5068 94.0649 16.3357V21.2145H90.9209V16.01C90.9209 15.2699 90.767 14.5357 89.8729 14.5357C88.9789 14.5357 88.671 15.5127 88.671 16.3416V21.2204H85.4915V14.4173C85.4915 13.8016 85.4915 13.1621 85.4204 12.5463H88.4282L88.4637 13.9733C88.9611 12.943 89.9736 12.3746 91.2821 12.3746C92.5906 12.3746 93.5142 12.9608 93.8754 14.0206C94.3195 12.9371 95.5096 12.3746 96.6049 12.3746C98.8549 12.3746 99.4884 13.7838 99.4884 15.8087V21.2204H96.3089L96.3148 21.2086Z" />
<path d="M106.67 21.2086L106.617 19.906C105.966 20.8 104.953 21.398 103.834 21.398C102.218 21.398 100.827 20.6224 100.827 18.858C100.827 16.5252 103.094 15.7495 105.362 15.7495C105.776 15.7495 106.22 15.785 106.647 15.8206V15.6133C106.647 14.4943 105.717 14.1509 104.586 14.1509C103.728 14.1509 102.715 14.3759 101.875 14.8377L101.774 12.8957C102.786 12.5878 104.024 12.3628 105.09 12.3628C107.547 12.3628 109.678 13.0141 109.678 15.8324V19.0415C109.678 20.1073 109.678 20.6402 109.749 21.2026H106.676L106.67 21.2086ZM106.653 17.2416H106.291C105.315 17.2416 103.781 17.3778 103.781 18.5975C103.781 19.3376 104.432 19.5922 105.001 19.5922C106.167 19.5922 106.647 18.633 106.647 17.6028V17.2416H106.653Z" />
<path d="M114.912 21.3921C112.799 21.3921 112.147 20.1724 112.147 18.1948V14.5002H110.637V12.5226H112.147V10.8885L115.327 9.89378V12.5226H117.215V14.5002H115.327V18.0054C115.327 18.6922 115.516 19.2251 116.304 19.2251C116.612 19.2251 116.937 19.154 117.233 19.0356L117.322 21.0132C116.564 21.2559 115.706 21.3921 114.918 21.3921H114.912Z" />
<path d="M121.212 17.6501C121.23 19.006 122.432 19.5922 123.651 19.5922C124.528 19.5922 125.576 19.456 126.363 19.0238L126.464 20.9125C125.38 21.2737 124.06 21.3921 122.911 21.3921C119.957 21.3921 118.104 19.8823 118.104 16.8212C118.104 13.9851 120.081 12.3569 122.704 12.3569C125.73 12.3569 126.914 14.2634 126.914 17.1113V17.6442H121.212V17.6501ZM122.722 14.0798C121.555 14.0798 121.194 15.264 121.194 16.1581H124.113C124.113 15.2462 123.853 14.0798 122.722 14.0798Z" />
<path d="M71.2814 40.1553L67.9657 31.274V40.1553H65.0112V28.6985H70.0084L73.3418 37.5975V28.6985H76.2786V40.1553H71.2814Z" />
<path d="M80.9679 36.5969C80.9857 37.9528 82.1876 38.539 83.4073 38.539C84.2836 38.539 85.3316 38.4028 86.1191 37.9706L86.2197 39.8593C85.1362 40.2205 83.8159 40.3389 82.6672 40.3389C79.7127 40.3389 77.8595 38.8291 77.8595 35.768C77.8595 32.9319 79.837 31.3036 82.46 31.3036C85.4855 31.3036 86.6697 33.2102 86.6697 36.0581V36.591H80.9679V36.5969ZM82.4777 33.0266C81.3113 33.0266 80.9502 34.2108 80.9502 35.1049H83.8691C83.8691 34.193 83.6086 33.0266 82.4777 33.0266Z" />
<path d="M93.8281 40.1553L93.7925 38.7284C93.2597 39.8119 92.1406 40.3271 90.9742 40.3271C88.9848 40.3271 88.0197 39.208 88.0197 37.2541V31.4813H91.1992V36.4785C91.1992 37.266 91.2821 38.16 92.3005 38.16C93.3189 38.16 93.5853 37.1831 93.5853 36.3245V31.4813H96.747V38.2666C96.747 38.8824 96.7648 39.5396 96.8299 40.1553H93.8221H93.8281Z" />
<path d="M102.1 40.3389C99.9858 40.3389 99.3345 39.1192 99.3345 37.1416V33.447H97.8246V31.4694H99.3345V29.8353L102.514 28.8406V31.4694H104.403V33.447H102.514V36.9522C102.514 37.639 102.703 38.1719 103.491 38.1719C103.799 38.1719 104.124 38.1008 104.42 37.9824L104.509 39.96C103.751 40.2027 102.893 40.3389 102.105 40.3389H102.1Z" />
<path d="M111.857 34.122C111.614 34.0213 111.342 34.0036 111.081 34.0036C109.589 34.0036 108.932 35.241 108.932 36.5791V40.1494H105.753V33.3463C105.753 32.7306 105.753 32.1089 105.682 31.4931H108.689L108.725 33.1924C109.169 32.1977 110.028 31.2859 111.265 31.2859C111.49 31.2859 111.709 31.3036 111.934 31.3747L111.851 34.122H111.857Z" />
<path d="M118.175 40.1553L118.121 38.8528C117.47 39.7468 116.458 40.3448 115.339 40.3448C113.722 40.3448 112.331 39.5692 112.331 37.8048C112.331 35.4719 114.598 34.6963 116.866 34.6963C117.281 34.6963 117.725 34.7318 118.151 34.7674V34.5601C118.151 33.4411 117.221 33.0977 116.091 33.0977C115.232 33.0977 114.22 33.3227 113.379 33.7845L113.278 31.8424C114.291 31.5346 115.528 31.3096 116.594 31.3096C119.051 31.3096 121.182 31.9609 121.182 34.7792V37.9883C121.182 39.0541 121.182 39.5869 121.254 40.1494H118.181L118.175 40.1553ZM118.157 36.1884H117.796C116.819 36.1884 115.285 36.3245 115.285 37.5442C115.285 38.2844 115.937 38.539 116.505 38.539C117.671 38.539 118.151 37.5798 118.151 36.5495V36.1884H118.157Z" />
<path d="M122.947 40.1553V27.7748H126.126V40.1553H122.947Z" />
<path d="M71.009 59.2857C67.267 59.2857 64.4664 57.3081 64.4664 53.3767C64.4664 49.6643 67.492 47.4676 71.009 47.4676C71.986 47.4676 73.0695 47.6393 74.0168 47.8643L73.9162 50.2682C73.2116 50.0077 72.3886 49.8241 71.6307 49.8241C69.4874 49.8241 68.0071 51.2155 68.0071 53.3767C68.0071 55.5378 69.363 56.9292 71.5597 56.9292C72.3827 56.9292 73.1879 56.7752 73.9458 56.4674L74.0464 58.8179C73.0991 59.1436 72.0037 59.2798 71.009 59.2798V59.2857Z" />
<path d="M79.8134 59.2857C76.8233 59.2857 74.9345 57.7048 74.9345 54.7148C74.9345 51.7247 77.0661 50.2504 79.8134 50.2504C82.5606 50.2504 84.6921 51.6241 84.6921 54.7148C84.6921 57.8055 82.7323 59.2857 79.8134 59.2857ZM79.8134 52.2635C78.6114 52.2635 78.3213 53.6549 78.3213 54.7207C78.3213 55.9759 78.6292 57.2607 79.8134 57.2607C80.9975 57.2607 81.3054 55.9878 81.3054 54.7207C81.3054 53.6549 81.0627 52.2635 79.8134 52.2635Z" />
<path d="M96.9187 59.1021V53.8977C96.9187 53.1398 96.7648 52.4234 95.853 52.4234C94.8938 52.4234 94.6688 53.4003 94.6688 54.2293V59.1081H91.5248V53.9036C91.5248 53.1635 91.3709 52.4293 90.4768 52.4293C89.5828 52.4293 89.2749 53.4063 89.2749 54.2352V59.114H86.0954V52.3109C86.0954 51.6951 86.0954 51.0557 86.0243 50.4399H89.0321L89.0677 51.8668C89.565 50.8366 90.5775 50.2682 91.886 50.2682C93.1945 50.2682 94.1182 50.8544 94.4794 51.9142C94.9234 50.8307 96.1135 50.2682 97.2089 50.2682C99.4588 50.2682 100.092 51.6774 100.092 53.7023V59.114H96.9128L96.9187 59.1021Z" />
<path d="M107.665 59.2857C106.599 59.2857 105.551 58.7173 105.143 57.7048V62.8086H101.963V52.678C101.963 51.63 101.928 51.0142 101.892 50.4281H104.9L104.953 51.855C105.451 50.7892 106.588 50.2564 107.754 50.2564C110.365 50.2564 111.395 52.4056 111.395 54.7207C111.395 57.0358 110.383 59.2916 107.671 59.2916L107.665 59.2857ZM106.552 52.3464C105.279 52.3464 105.06 53.7201 105.06 54.7148C105.06 55.7095 105.285 57.1897 106.54 57.1897C107.795 57.1897 108.014 55.7154 108.014 54.7148C108.014 53.7141 107.825 52.3464 106.558 52.3464H106.552Z" />
<path d="M118.104 59.1021L118.05 57.7995C117.399 58.6936 116.387 59.2916 115.268 59.2916C113.651 59.2916 112.26 58.516 112.26 56.7515C112.26 54.4187 114.527 53.6431 116.795 53.6431C117.21 53.6431 117.654 53.6786 118.08 53.7141V53.5069C118.08 52.3879 117.15 52.0445 116.019 52.0445C115.161 52.0445 114.148 52.2695 113.308 52.7313L113.207 50.7892C114.22 50.4813 115.457 50.2564 116.523 50.2564C118.98 50.2564 121.111 50.9076 121.111 53.726V56.9351C121.111 58.0009 121.111 58.5337 121.182 59.0962H118.11L118.104 59.1021ZM118.086 55.1352H117.725C116.748 55.1352 115.214 55.2713 115.214 56.491C115.214 57.2311 115.866 57.4857 116.434 57.4857C117.6 57.4857 118.08 56.5266 118.08 55.4963V55.1352H118.086Z" />
<path d="M128.441 59.1021V54.0872C128.441 53.2997 128.359 52.4234 127.34 52.4234C126.322 52.4234 126.049 53.3826 126.049 54.2411V59.1021H122.87V52.2991C122.87 51.6833 122.87 51.0438 122.799 50.4281H125.807L125.842 51.855C126.375 50.7715 127.494 50.2564 128.661 50.2564C130.656 50.2564 131.615 51.3754 131.615 53.3293V59.1021H128.436H128.441Z" />
<path d="M138.969 59.7179C138.608 60.837 137.939 62.9803 135.256 62.9803C134.398 62.9803 133.812 62.8797 133.06 62.7376L133.16 60.7304C133.504 60.831 133.883 60.8843 134.244 60.8843C134.931 60.8843 135.446 60.2686 135.653 59.7357L135.789 59.339L132.61 50.4281H135.908L137.471 56.5621L138.844 50.4281H141.935L138.963 59.7179H138.969Z" />
<path d="M16.2173 53.051C16.164 52.8971 16.0929 52.7727 15.9982 52.6839C15.9035 52.5951 15.7791 52.5537 15.6133 52.5537C15.4476 52.5537 15.3232 52.5951 15.2285 52.6839C15.1337 52.7727 15.0627 52.8971 15.0153 53.051C14.968 53.205 14.9324 53.3944 14.9206 53.6076C14.9028 53.8207 14.8969 54.0516 14.8969 54.3003C14.8969 54.5253 14.9028 54.7444 14.9147 54.9516C14.9265 55.1648 14.9561 55.3483 15.0035 55.5082C15.0509 55.668 15.1219 55.7983 15.2166 55.899C15.3114 55.9996 15.4416 56.047 15.6133 56.047C15.785 56.047 15.9094 55.9996 16.01 55.899C16.1107 55.7983 16.1817 55.668 16.2291 55.5082C16.2765 55.3483 16.312 55.1588 16.3238 54.9516C16.3357 54.7385 16.3416 54.5253 16.3416 54.3003C16.3416 54.0516 16.3357 53.8207 16.3179 53.6076C16.3002 53.3944 16.2706 53.2109 16.2173 53.051Z" />
<path d="M32.2391 8.31882C18.1119 8.31882 6.66098 19.7698 6.66098 33.897V59.4752H32.2391C46.3663 59.4752 57.8173 48.0242 57.8173 33.897V8.31882H32.2391ZM12.7062 56.8996H8.7096V55.822L9.53852 55.1648C9.66286 55.0641 9.82273 54.9516 10.0122 54.8273C10.2017 54.7029 10.3852 54.5608 10.5569 54.4069C10.7286 54.2529 10.8826 54.0931 11.0069 53.9273C11.1372 53.7556 11.1964 53.5839 11.1964 53.4003C11.1964 53.2582 11.1668 53.1398 11.1076 53.0451C11.0483 52.9504 10.9714 52.8734 10.8707 52.8083C10.776 52.749 10.6694 52.7076 10.5451 52.6839C10.4267 52.6602 10.3023 52.6484 10.178 52.6484C9.95299 52.6484 9.72799 52.6839 9.49708 52.749C9.26616 52.8142 9.05301 52.8911 8.8517 52.98L8.81026 51.926C9.08854 51.8372 9.37274 51.7603 9.65102 51.701C9.9293 51.6418 10.2194 51.6122 10.5155 51.6122C10.776 51.6122 11.0365 51.6359 11.2911 51.6892C11.5516 51.7425 11.7766 51.8254 11.9838 51.9438C12.1911 52.0622 12.3509 52.228 12.4812 52.4293C12.6115 52.6365 12.6707 52.8911 12.6707 53.1931C12.6707 53.4418 12.6115 53.6786 12.493 53.8977C12.3746 54.1168 12.2266 54.324 12.0431 54.5194C11.8595 54.7148 11.6641 54.8924 11.451 55.0523C11.2378 55.218 11.0365 55.3661 10.8411 55.4963L10.4267 55.8871H12.7003V56.8937L12.7062 56.8996ZM17.7093 55.3246C17.6324 55.6503 17.508 55.9345 17.3363 56.1772C17.1646 56.42 16.9337 56.6154 16.6554 56.7634C16.3771 56.9114 16.0337 56.9825 15.6252 56.9825C15.2166 56.9825 14.8732 56.9114 14.5949 56.7693C14.3167 56.6272 14.0858 56.4318 13.914 56.1891C13.7423 55.9463 13.618 55.6621 13.541 55.3365C13.4641 55.0108 13.4285 54.6674 13.4285 54.3003C13.4285 53.9332 13.47 53.5898 13.547 53.2642C13.6239 52.9385 13.7483 52.6543 13.9259 52.4116C14.0976 52.1688 14.3285 51.9734 14.6068 51.8313C14.8851 51.6892 15.2226 51.6182 15.6252 51.6182C16.0278 51.6182 16.3653 51.6892 16.6495 51.8313C16.9337 51.9734 17.1587 52.1688 17.3304 52.4175C17.5021 52.6661 17.6324 52.9504 17.7093 53.276C17.7863 53.6017 17.8277 53.9451 17.8277 54.3003C17.8277 54.6556 17.7922 54.999 17.7152 55.3246H17.7093ZM22.375 56.8996H18.3784V55.822L19.2073 55.1648C19.3316 55.0641 19.4915 54.9516 19.681 54.8273C19.8704 54.7029 20.054 54.5608 20.2257 54.4069C20.3974 54.2529 20.5513 54.0931 20.6757 53.9273C20.8059 53.7556 20.8652 53.5839 20.8652 53.4003C20.8652 53.2582 20.8355 53.1398 20.7763 53.0451C20.7171 52.9504 20.6402 52.8734 20.5395 52.8083C20.4448 52.749 20.3382 52.7076 20.2139 52.6839C20.0954 52.6602 19.9711 52.6484 19.8468 52.6484C19.6218 52.6484 19.3968 52.6839 19.1659 52.749C18.9349 52.8142 18.7218 52.8911 18.5205 52.98L18.479 51.926C18.7573 51.8372 19.0415 51.7603 19.3198 51.701C19.5981 51.6418 19.8882 51.6122 20.1843 51.6122C20.4448 51.6122 20.7053 51.6359 20.9599 51.6892C21.2204 51.7425 21.4454 51.8254 21.6526 51.9438C21.8599 52.0622 22.0197 52.228 22.15 52.4293C22.2802 52.6365 22.3394 52.8911 22.3394 53.1931C22.3394 53.4418 22.2802 53.6786 22.1618 53.8977C22.0434 54.1168 21.8954 54.324 21.7118 54.5194C21.5283 54.7148 21.3329 54.8924 21.1197 55.0523C20.9066 55.218 20.7053 55.3661 20.5099 55.4963L20.0954 55.8871H22.3691V56.8937L22.375 56.8996ZM26.4841 56.8996H25.0216V53.1339L23.9144 53.9391L23.4644 52.8911L25.2288 51.6892H26.4841V56.8996ZM38.8468 49.5162C37.6271 37.9587 35.6022 35.691 33.9148 33.7963C33.7134 33.5713 33.222 33.3167 33.2812 33.0385C34.4121 27.7334 42.2158 28.5031 42.2158 28.5031C42.2158 28.5031 42.8849 27.8577 40.0192 27.4136C38.539 27.1827 36.0936 26.9518 34.8739 26.638C31.5523 25.7854 30.1136 24.3111 27.3663 26.1466C25.0098 27.7215 25.5545 30.1905 24.0979 32.0201C20.877 36.07 19.6869 42.1507 19.5034 45.5493C16.7975 42.577 15.1456 38.6218 15.1456 34.2878C15.1456 25.0394 22.6414 17.5435 31.8898 17.5435C41.1382 17.5435 48.634 25.0394 48.634 34.2878C48.634 41.0494 44.6197 46.8755 38.8528 49.5162H38.8468Z" />
</svg>