<svg xmlns="http://www.w3.org/2000/svg" width="80" height="80" fill="none" viewBox="0 0 80 80">
  <path fill="#30CF72" d="M23.729 4.114c1.198-.026 2.695-.058 2.983-.812.497-1.306 4.202-1.003 4.938-.081.52.65 1.44.496 2.353.343.627-.105 1.251-.21 1.74-.053.527.17.534-.118.542-.4.006-.22.012-.435.257-.435.212 0 .49.175.807.375.736.465 1.685 1.063 2.528-.078.283-.383 1.47-.152 2.345.019.355.069.658.128.828.131 1.719.038 2.017.112 2.39.594.233.303 2.092.746 2.095.577.012-.688 1.505-.352 2.482-.131.269.06.499.112.648.131 2.493.32 9.185 2.55 12.65 4.212 3.701 1.777 7.521 3.913 10.146 7.18.058.072.195.208.369.38.602.597 1.648 1.635 1.415 2.01-.227.367.05.697.343 1.047.358.426.74.882.274 1.472-.26.33-.454.81-.431 1.067.03.348-1.257 1.289-1.493.975-.258-.34-2.28-.484-1.653-.026 1.041.759-1.183 1.455-2.094 1.74-.14.045-.25.079-.311.102-.732.277-1.846-.191-4.522-1.903-3.347-2.14-7.079-3.502-10.797-4.859-.727-.265-1.454-.53-2.177-.801a61 61 0 01-1.64-.652c-2.053-.837-4.428-1.806-6.354-1.806-.107 0-.285-.175-.46-.348-.259-.256-.51-.506-.51-.157 0 .252-1.422.109-2.58-.26-.728-.233-1.97-.298-3.306-.367-2.336-.121-4.963-.258-5.662-1.33-.293-.452-1.483-.55-1.314-.108.256.663-.983.144-1.098-.156-.11-.285-1.694-.273-1.873.015-.445.717-8.345.685-8.593.286-.25-.403-1.798-.329-2.037.097-.385.686-2.3.908-3.026.609-.63-.261-.773-.238-1.151.19-.512.577-2.52.512-2.52-.082 0-.367-4.42.595-4.42 1.122 0 .554-.69.194-.808-.422-.098-.51.042-.839.602-1.408.567-.577.644-.76.344-.821-.566-.117-.469-.778.114-.778.535 0 2.203-1.697 2.203-2.066 0-.361.82-.311 1.678-.259 1.05.064 2.158.132 1.897-.545-.043-.114.893-.32 1.771-.514.72-.16 1.403-.31 1.472-.393.18-.217-2.196-.162-2.913-.146l-.19.004c-.983 0 .772-.924 2.058-1.083a5.47 5.47 0 00.87-.206c.45-.133.9-.266 1.37-.213.625.071 2.77-.78 3.286-1.077.693-.399 2.104-.518 1.48-.125-.697.44.021.592 1.428.302.287-.06.731-.069 1.227-.08z"/>
  <path fill="#30CF72" fill-rule="evenodd" d="M7.797 48.293c-.09-1.365.41-.807 1.565-.8.249.003 1.299.861 2.333 1.909 2.5 2.53 5.34 4.328 8.243 6.166.824.521 1.653 1.046 2.48 1.592 1.462.963 3.2 1.8 4.94 2.115.882.16 1.706.447 2.53.734 1 .349 1.998.697 3.1.817 3.08.337 5.313.694 7.238 1.158 3.716.897 12.738 2.474 16.241.313.371-.229 10.145-2.377 11.324-2.49 1.244-.118 2.646.334 2.646.854-3.243 1.337-1.413 1.222-.099 1.139.452-.029.842-.053.945-.014.497.19.942 1.13.505 1.473-1.902.545-2.761 1.035 0 1.035.4.008.059.506-.325 1.066-.413.602-.874 1.277-.523 1.494.703.432-.23.926-.958 1.311-.347.185-.648.344-.701.46-.41.898-4.739 2.965-4.739 2.263 0-1.022-3.521 1.047-4.067 1.482-.463.37-.461.376.076.228 1.017-.279.568.057-1.274.953-1.447.703-3.492 1.295-5.112 1.607-5.33 1.029-10.454 1.397-15.904 1.225-4.406-.139-17.55-4.352-18.847-6.04-.283-.368-.759-.479-1.234-.589-.599-.14-1.197-.278-1.406-.934-.066-.206-.294-.324-.499-.43-.192-.099-.365-.188-.365-.33 0-.142-.415-.446-.921-.676-1.07-.486-3.5-2.262-3.5-2.559 0-.308-1.888-2.142-2.205-2.142-.534 0-1.723-1.37-3.927-4.524-2.463-3.524-2.87-4.73-1.509-4.458.777.155 1.26-1.045.7-1.74-.312-.386-.252-.438.717-.622.74-.14 1.514.283 1.162.634-.08.08.087.084.37.01.585-.152.684-.858.179-1.276a.82.82 0 00-.737-.126c-.5.191-.515-.065-.031-.547.202-.202.419-1.581 1.168-.803 2.274 2.364 7.123 6.337 7.369 5.266-.246-.796-4.662-2.916-6.948-6.204zm25.46 14.478c1.89.567 3.993 1.198 5.87 1.54 2.249.407 6.504.782 9.759.84 3.583.065 6.076-.19 6.14.303.123.938-6.14 1.29-15.474 0-3.388-.543-14.43-5.124-6.296-2.683z" clip-rule="evenodd"/>
  <path fill="#30CF72" stroke="#121417" stroke-width="1.5" d="M29.073 33.412c1.039-2.831.467-9.218-8.09-11.951-8.539-2.727-15.616 4.588-17.404 10.913 7.546-1.87 8.344 4.154 14.324 5.988 5.992 1.837 10.13-2.118 11.17-4.95z"/>
  <path stroke="#121417" stroke-width="1.5" d="M17.859 28.144c7.99.941 14.871 3.808 14.85 12.635l-.001 8.326"/>
  <path fill="#30CF72" stroke="#121417" stroke-width="1.5" d="M36.228 32.258c-2.145-3.046-5.289-14.408 5.728-17.809 11.018-3.401 22.127 5.755 24.112 12.8-5.06-1.29-8.372 3.236-14.933 7.343-6.561 4.107-12.762.712-14.907-2.334z"/>
  <path stroke="#121417" stroke-width="1.5" d="M52.058 22.66c-7.422-2.754-19.35 3.4-19.35 15.367v10.847"/>
  <path fill="#121417" stroke="#121417" stroke-width="1.5" d="M42.735 57.528s-3.263-9.235-10.05-9.394c-6.94-.163-10.64 9.256-10.64 9.256s3.762 6.396 10.65 6.33c6.734-.065 10.04-6.192 10.04-6.192z"/>
  <g>
    <path fill="#fff" d="M59.904 39.907c2.294-.278 11.035-7.009 15.118-10.34 5.364 4.104-.321 13.203 3.389 19.463-3.36.984-11.121 3.875-15.292 7.559-5.213 4.604-13.38 14.51-17.898 15.117-4.518.609-16.595.782-19.636-.868-.644-.35-1.509-1.09-2.484-2.05-2.752-1.884-8.63-5.93-10.127-7.035-1.871-1.383-5.349-2.73-5.125-3.986.487-2.734 3.864-3.58 5.81-2.478.565-.525 1.566-.817 3.219-.438 3.336.764 9.153 5.789 12.976 8.546 1.282-3.102 6.977-5.829 10.849-8.546 4.952-3.475 4.522-6.761 7.813-10.272 2.739-2.922 8.521-4.325 11.388-4.672z"/>
    <path stroke="#121417" stroke-width="1.5" d="M75.022 29.568c-4.083 3.33-12.824 10.06-15.118 10.339-2.867.347-8.65 1.75-11.388 4.672-3.29 3.51-2.86 6.797-7.813 10.272-3.872 2.717-9.567 5.444-10.849 8.546m24.23-6.026c-2.347.26-7.386 3.388-11.122 6.255-3.736 2.867-9.97 7.405-12.772 2.954-.676-1.074-.693-2.318-.336-3.183M78.411 49.03c-3.36.984-11.121 3.875-15.292 7.559-5.213 4.604-13.38 14.51-17.898 15.117-4.518.609-16.595.782-19.636-.868-.644-.35-1.509-1.09-2.484-2.05m6.753-5.391c-3.823-2.757-9.64-7.782-12.976-8.546-1.653-.379-2.654-.087-3.22.438m0 0c-.86.8-.711 2.14-.318 2.478.976.838 6.132 7.45 9.761 11.021m-9.442-13.5c-1.946-1.1-5.323-.255-5.81 2.479-.224 1.257 3.254 2.603 5.125 3.986 1.496 1.106 7.375 5.151 10.127 7.035"/>
  </g>
</svg>
